#!OML:ASF E:\motion texture\Top Level 1\Subject 1\Session 1\male.ASF
:FULLY-SPECIFIED
:DEGREES
209
root 2.12204 17.3941 4.24456 480.36 -81.1737 -476.589
lowerback 0.875204 -1.46694 5.01203
upperback -2.03455 -1.87874 4.59949
thorax -2.59329 -1.0452 1.99639
lowerneck -20.1595 -1.3189 -3.6933
upperneck 13.3653 -1.48638 4.09576
head 7.46487 -0.502782 1.77451
rclavicle 2.67614e-014 -4.21423e-014
rhumerus -30.6639 15.3275 -95.0108
rradius 68.0893
rwrist -6.98924
rhand -10.5333 -11.3683
rfingers 7.12502
rthumb 15.4701 -40.7693
lclavicle 2.67614e-014 -4.21423e-014
lhumerus -36.6736 -4.80738 91.5476
lradius 38.4701
lwrist -8.73085
lhand -8.44589 4.83616
lfingers 7.12502
lthumb 17.4798 34.0703
rfemur -26.5972 1.83554 35.2928
rtibia 37.0882
rfoot -369.387 -5.60072
rtoes 21.1626
lfemur -14.9527 4.07183 -6.21018
ltibia 68.6291
lfoot 378.858 -17.9198
ltoes -1.69604
210
root 1.99376 17.4059 4.22046 480.086 -80.1983 -476.546
lowerback 1.27467 -1.26589 5.87079
upperback -1.86899 -1.57504 4.77866
thorax -2.66663 -0.913789 1.70369
lowerneck -20.0771 -1.26834 -3.56346
upperneck 13.3359 -1.42766 3.93917
head 7.43664 -0.484028 1.70827
rclavicle -1.35259e-014 -2.82274e-014
rhumerus -28.3748 17.7964 -95.672
rradius 69.5222
rwrist -7.49331
rhand -10.5718 -11.2549
rfingers 7.12502
rthumb 15.433 -40.6587
lclavicle -1.35259e-014 -2.82274e-014
lhumerus -37.7395 -3.6998 90.4649
lradius 37.1842
lwrist -9.12067
lhand -8.20042 4.89975
lfingers 7.12502
lthumb 17.716 34.1127
rfemur -25.352 2.61414 36.4809
rtibia 36.3899
rfoot -369.682 -6.01913
rtoes 21.1165
lfemur -18.2472 4.84335 -4.9513
ltibia 73.6598
lfoot 377.275 -17.9144
ltoes -2.74711
211
root 1.8686 17.4228 4.19721 479.803 -79.3075 -476.46
lowerback 1.6593 -1.06085 6.65121
upperback -1.73753 -1.26133 4.94198
thorax -2.75829 -0.776831 1.4365
lowerneck -19.968 -1.25654 -3.50624
upperneck 13.346 -1.41658 3.85706
head 7.42017 -0.484812 1.67304
rclavicle -2.15115e-014 1.63003e-014
rhumerus -26.0368 20.124 -96.0566
rradius 70.7749
rwrist -7.82348
rhand -10.6161 -11.0916
rfingers 7.12502
rthumb 15.3903 -40.4987
lclavicle -2.15115e-014 1.63003e-014
lhumerus -38.8035 -2.8084 89.408
lradius 36.0686
lwrist -9.58872
lhand -8.0293 4.95177
lfingers 7.12502
lthumb 17.8806 34.1498
rfemur -24.1488 3.30658 37.5696
rtibia 35.6656
rfoot -369.905 -6.38349
rtoes 21.1436
lfemur -21.6969 5.63965 -3.84097
ltibia 78.5442
lfoot 375.626 -18.7643
ltoes -3.63268
212
root 1.74465 17.446 4.17487 479.69 -78.5548 -476.522
lowerback 2.01652 -0.847681 7.29804
upperback -1.63704 -0.934695 5.06536
thorax -2.85789 -0.631268 1.1994
lowerneck -19.8322 -1.29022 -3.50829
upperneck 13.3923 -1.4638 3.83709
head 7.41444 -0.510799 1.66125
rclavicle -4.82985e-016 -6.12257e-014
rhumerus -23.658 22.2549 -96.1886
rradius 71.7953
rwrist -7.93815
rhand -10.6483 -10.8619
rfingers 7.12502
rthumb 15.3593 -40.2714
lclavicle -4.82985e-016 -6.12257e-014
lhumerus -39.8567 -2.1362 88.3815
lradius 35.1207
lwrist -10.1096
lhand -7.88876 4.99556
lfingers 7.12502
lthumb 18.0159 34.1812
rfemur -22.9715 3.90532 38.4773
rtibia 34.9095
rfoot -370.063 -6.65486
rtoes 21.1461
lfemur -25.252 6.42499 -2.96798
ltibia 83.7491
lfoot 376.502 -45.6499
ltoes -3.82745
213
root 1.62014 17.475 4.15431 479.954 -77.9733 -476.938
lowerback 2.31835 -0.616369 7.77923
upperback -1.55654 -0.587504 5.12532
thorax -2.93887 -0.471362 0.984005
lowerneck -19.6866 -1.36725 -3.55707
upperneck 13.4612 -1.56876 3.87605
head 7.4177 -0.561286 1.66982
rclavicle -6.74625e-015 -5.92378e-014
rhumerus -21.2559 24.1496 -96.1029
rradius 72.5811
rwrist -7.84729
rhand -10.6834 -10.5971
rfingers 7.12502
rthumb 15.3255 -40.0093
lclavicle -6.74625e-015 -5.92378e-014
lhumerus -40.8642 -1.65395 87.3721
lradius 34.3231
lwrist -10.6668
lhand -7.73169 5.04177
lfingers 7.12502
lthumb 18.167 34.2134
rfemur -21.8229 4.39722 39.1438
rtibia 34.1304
rfoot -370.17 -6.8103
rtoes 21.1255
lfemur -28.8777 7.17838 -2.40506
ltibia 87.8249
lfoot 378.716 -72.7144
ltoes -3.29796
214
root 1.49502 17.5093 4.13534 480.514 -77.5478 -477.642
lowerback 2.57938 -0.370361 8.11474
upperback -1.48617 -0.224782 5.12273
thorax -3.00088 -0.299557 0.780532
lowerneck -19.5378 -1.48029 -3.64283
upperneck 13.5397 -1.72292 3.96811
head 7.42648 -0.632244 1.69621
rclavicle -5.87968e-015 3.4191e-014
rhumerus -18.8565 25.7852 -95.8391
rradius 73.1327
rwrist -7.57377
rhand -10.7239 -10.3192
rfingers 7.12502
rthumb 15.2864 -39.7343
lclavicle -5.87968e-015 3.4191e-014
lhumerus -41.8222 -1.3348 86.3778
lradius 33.6825
lwrist -11.1741
lhand -7.54743 5.10692
lfingers 7.12502
lthumb 18.3443 34.2619
rfemur -20.6858 4.76704 39.5928
rtibia 33.3359
rfoot -370.229 -6.8531
rtoes 21.0679
lfemur -32.5328 7.87056 -2.12378
ltibia 88.7432
lfoot 546.628 -79.8601
ltoes -2.29678
215
root 1.36908 17.5474 4.11842 481.415 -77.2263 -478.69
lowerback 2.81661 -0.105329 8.34636
upperback -1.42708 0.160913 5.06821
thorax -3.05558 -0.113457 0.576994
lowerneck -19.3562 -1.61743 -3.75069
upperneck 13.6042 -1.91098 4.09244
head 7.42738 -0.717991 1.73286
rclavicle 1.03896e-014 -7.15625e-015
rhumerus -16.5175 27.1536 -95.4534
rradius 73.4783
rwrist -7.19811
rhand -10.7687 -10.0651
rfingers 7.12502
rthumb 15.2433 -39.4835
lclavicle 1.03896e-014 -7.15625e-015
lhumerus -42.7375 -1.12688 85.3859
lradius 33.1795
lwrist -11.5785
lhand -7.38298 5.10707
lfingers 7.12502
lthumb 18.5024 34.2471
rfemur -19.552 5.03837 39.8698
rtibia 32.5457
rfoot -370.286 -6.78336
rtoes 21.0617
lfemur -36.1795 8.5174 -2.06846
ltibia 86.202
lfoot 550.932 -52.4139
ltoes -1.19921
216
root 1.242 17.5877 4.10396 482.614 -76.9405 -480.055
lowerback 3.04179 0.18739 8.54245
upperback -1.35301 0.581261 4.97127
thorax -3.08175 0.0921608 0.34498
lowerneck -19.2063 -1.77373 -3.86149
upperneck 13.6637 -2.12767 4.23844
head 7.43389 -0.815293 1.77378
rclavicle -4.22417e-015 3.4191e-014
rhumerus -14.2324 28.2516 -94.9729
rradius 73.6507
rwrist -6.83035
rhand -10.8056 -9.83651
rfingers 7.12502
rthumb 15.2078 -39.2576
lclavicle -4.22417e-015 3.4191e-014
lhumerus -43.5972 -1.01444 84.393
lradius 32.8309
lwrist -11.829
lhand -7.18774 5.07577
lfingers 7.12502
lthumb 18.6902 34.1979
rfemur -18.4026 5.23924 40.0419
rtibia 31.7722
rfoot -370.336 -6.59542
rtoes 21.0353
lfemur -39.7722 9.14212 -2.15499
ltibia 81.5954
lfoot 550.514 -24.7276
ltoes -0.21535
217
root 1.11396 17.6288 4.09205 483.963 -76.6432 -481.605
lowerback 3.28493 0.499831 8.75142
upperback -1.26278 1.03011 4.85148
thorax -3.09446 0.31251 0.0788544
lowerneck -19.0788 -1.941 -3.96996
upperneck 13.7101 -2.36025 4.39006
head 7.44119 -0.919387 1.81426
rclavicle 1.50331e-015 2.66371e-014
rhumerus -12.0361 29.1179 -94.431
rradius 73.6933
rwrist -6.55771
rhand -10.8715 -9.67089
rfingers 7.12502
rthumb 15.1443 -39.0968
lclavicle 1.50331e-015 2.66371e-014
lhumerus -44.4227 -0.972938 83.407
lradius 32.6317
lwrist -11.8968
lhand -7.01471 4.98725
lfingers 7.12502
lthumb 18.8567 34.0933
rfemur -17.2205 5.38934 40.1672
rtibia 31.0173
rfoot -370.395 -6.31086
rtoes 21.0704
lfemur -43.2778 9.74669 -2.30896
ltibia 77.3969
lfoot 549.387 3.15204
ltoes 0.520744
218
root 0.985225 17.6696 4.08247 485.269 -76.3229 -483.145
lowerback 3.5518 0.818271 9.00249
upperback -1.15473 1.49064 4.71974
thorax -3.09464 0.538507 -0.2252
lowerneck -18.991 -2.11534 -4.07488
upperneck 13.7464 -2.60234 4.54354
head 7.45292 -1.02723 1.85353
rclavicle 9.26212e-015 3.29983e-014
rhumerus -9.92564 29.784 -93.851
rradius 73.633
rwrist -6.45084
rhand -10.9928 -9.56596
rfingers 7.12502
rthumb 15.0275 -39.0006
lclavicle 9.26212e-015 3.29983e-014
lhumerus -45.2309 -0.998916 82.4389
lradius 32.6038
lwrist -11.7788
lhand -6.87008 4.88681
lfingers 7.12502
lthumb 18.9958 33.9792
rfemur -16.0182 5.49566 40.2812
rtibia 30.2876
rfoot -370.459 -5.96651
rtoes 21.1369
lfemur -46.7056 10.3132 -2.48603
ltibia 74.3854
lfoot 548.867 4.18007
ltoes 1.04796
219
root 0.855319 17.7093 4.07487 486.541 -75.972 -484.676
lowerback 3.83878 1.1418 9.29222
upperback -1.03457 1.96166 4.58328
thorax -3.08507 0.76945 -0.557677
lowerneck -18.9345 -2.29208 -4.17759
upperneck 13.7729 -2.84653 4.69451
head 7.46736 -1.13582 1.89119
rclavicle -1.07095e-014 5.1684e-014
rhumerus -7.91569 30.3005 -93.2448
rradius 73.5127
rwrist -6.55012
rhand -11.1554 -9.52823
rfingers 7.12502
rthumb 14.8707 -38.9745
lclavicle -1.07095e-014 5.1684e-014
lhumerus -46.0411 -1.08444 81.4971
lradius 32.7385
lwrist -11.5063
lhand -6.78506 4.74424
lfingers 7.12502
lthumb 19.0775 33.8286
rfemur -14.8046 5.59398 40.394
rtibia 29.5939
rfoot -370.532 -5.59327
rtoes 21.2813
lfemur -50.0463 10.858 -2.67397
ltibia 71.6255
lfoot 548.37 4.9616
ltoes 1.35251
